<?xml version="1.0" encoding="utf-8"?>
<svg width="120" height="44" viewBox="0 0 120 44" fill="none" xmlns="http://www.w3.org/2000/svg">
  <path d="M54.6558 30.1886V18.7418H54.8576L63.104 30.1886H65.699V13.3788H62.8156V24.7968H62.6138L54.3675 13.3788H51.7725V30.1886H54.6558ZM73.8588 30.4481C77.6648 30.4481 80.0003 27.9685 80.0003 23.8165C80.0003 19.6933 77.6648 17.1848 73.8588 17.1848C70.0816 17.1848 67.7173 19.6933 67.7173 23.8165C67.7461 27.9685 70.0528 30.4481 73.8588 30.4481ZM73.8588 28.0261C71.8405 28.0261 70.6871 26.498 70.6871 23.8165C70.6871 21.1638 71.8405 19.6068 73.8588 19.6068C75.8771 19.6068 77.0305 21.1638 77.0305 23.8165C77.0305 26.498 75.8771 28.0261 73.8588 28.0261ZM82.6241 14.3303V17.5308H80.6058V19.8375H82.6241V26.7863C82.6241 29.266 83.7775 30.2463 86.7185 30.2463C87.2663 30.2463 87.8141 30.1886 88.2466 30.1021V27.8531C87.9006 27.882 87.67 27.9108 87.2663 27.9108C86.0553 27.9108 85.5075 27.363 85.5075 26.0943V19.8375H88.2466V17.5308H85.5075V14.3303H82.6241ZM89.9766 30.1886H92.86V17.4443H89.9766V30.1886ZM91.4183 15.3395C92.3698 15.3395 93.1483 14.561 93.1483 13.6095C93.1483 12.6291 92.3698 11.8506 91.4183 11.8506C90.4668 11.8506 89.6883 12.6291 89.6883 13.6095C89.6883 14.561 90.4668 15.3395 91.4183 15.3395ZM100.76 30.4481C104.566 30.4481 106.902 27.9685 106.902 23.8165C106.902 19.6933 104.566 17.1848 100.76 17.1848C96.9831 17.1848 94.6188 19.6933 94.6188 23.8165C94.6188 27.9685 96.9255 30.4481 100.76 30.4481ZM100.76 28.0261C98.742 28.0261 97.5886 26.498 97.5886 23.8165C97.5886 21.1638 98.742 19.6068 100.76 19.6068C102.75 19.6068 103.932 21.1638 103.932 23.8165C103.903 26.498 102.75 28.0261 100.76 28.0261ZM108.603 30.1886H111.486V22.7785C111.486 20.9043 112.582 19.7221 114.283 19.7221C116.042 19.7221 116.849 20.7025 116.849 22.6343V30.1886H119.733V21.9423C119.733 18.886 118.176 17.1848 115.35 17.1848C113.447 17.1848 112.178 18.0498 111.573 19.4915H111.371V17.4443H108.574C108.603 17.4443 108.603 30.1886 108.603 30.1886Z" style="fill: rgb(0, 0, 0);"/>
  <path fill-rule="evenodd" clip-rule="evenodd" d="M7.6004 8.18883C8.95557 9.2845 9.44573 9.198 11.9831 9.025L35.8859 7.58333C36.4049 7.58333 35.9724 7.06433 35.7994 7.00667L31.8204 4.15217C31.0707 3.5755 30.0327 2.8835 28.1009 3.0565L4.97657 4.75766C4.1404 4.84416 3.9674 5.27667 4.3134 5.59383L7.6004 8.18883ZM9.04207 13.7537V38.8963C9.04207 40.2515 9.70523 40.7417 11.2334 40.6552L37.5006 39.127C39.0287 39.0405 39.2017 38.1178 39.2017 37.0222V12.0525C39.2017 10.9568 38.7692 10.3513 37.8466 10.4378L10.3972 12.0525C9.38806 12.139 9.04207 12.658 9.04207 13.7537ZM34.9632 15.1088C35.1362 15.8585 34.9632 16.637 34.2136 16.7235L32.9449 16.983V35.5517C31.8492 36.1283 30.8401 36.4743 29.9751 36.4743C28.6199 36.4743 28.2739 36.0418 27.2647 34.7732L18.9896 21.7693V34.3407L21.6134 34.9173C21.6134 34.9173 21.6134 36.4455 19.5086 36.4455L13.6842 36.7915C13.5112 36.4455 13.6842 35.6093 14.2609 35.4363L15.7891 35.0038V18.3958L13.6842 18.2228C13.5112 17.4732 13.9437 16.3775 15.1259 16.291L21.3827 15.8585L30.0039 29.0065V17.3867L27.8126 17.1272C27.6396 16.2045 28.3316 15.5125 29.1677 15.426L34.9632 15.1088ZM3.04473 2.451L27.1206 0.692165C30.0616 0.432665 30.8401 0.605666 32.6854 1.96083L40.3551 7.35266C41.6237 8.27533 42.0562 8.53483 42.0562 9.544V39.1558C42.0562 41.0012 41.3931 42.0968 39.0287 42.2698L11.0892 43.971C9.30157 44.0575 8.4654 43.798 7.54273 42.6158L1.86257 35.2633C0.853398 33.9082 0.420898 32.899 0.420898 31.7168V5.392C0.420898 3.86383 1.1129 2.624 3.04473 2.451Z" style="fill: rgb(0, 0, 0);"/>
</svg>