<?xml version="1.0" encoding="utf-8"?>
<svg width="130" height="130" viewBox="0 0 130 130" fill="none" xmlns="http://www.w3.org/2000/svg">
  <path d="M0.863281 52.5382H5.88047V70.7991H15.1633V75.4304H0.863281V52.5382ZM17.3773 59.9218H22.1914V75.4202H17.3773V59.9218ZM19.7844 52.2132C20.3368 52.2132 20.8768 52.377 21.3361 52.6839C21.7954 52.9908 22.1533 53.427 22.3647 53.9373C22.5761 54.4477 22.6314 55.0093 22.5237 55.551C22.4159 56.0928 22.1499 56.5905 21.7593 56.9811C21.3687 57.3717 20.871 57.6377 20.3293 57.7455C19.7875 57.8532 19.2259 57.7979 18.7156 57.5865C18.2052 57.3751 17.769 57.0172 17.4621 56.5579C17.1552 56.0986 16.9914 55.5586 16.9914 55.0062C16.9914 54.2654 17.2857 53.555 17.8094 53.0312C18.3332 52.5075 19.0436 52.2132 19.7844 52.2132ZM42.3414 52.5382H47.1555V66.2187L52.6195 59.9015H58.5203L52.2031 67.0819L58.3883 75.4304H52.3352L47.2164 67.7624H47.1555V75.4304H42.3414V52.5382ZM24.8625 59.9218H29.4531V62.0444H29.5141C29.9771 61.2538 30.6455 60.6032 31.4483 60.1615C32.2511 59.7199 33.1585 59.5037 34.0742 59.5359C38.9594 59.5359 39.8531 62.7452 39.8531 66.9194V75.4304H35.0797V67.8843C35.0797 66.0866 35.0797 63.8218 32.5711 63.8218C30.0625 63.8218 29.6766 65.7819 29.6766 67.803V75.471H24.8625V59.9218Z" style="fill: rgb(0, 0, 0);"/>
  <path d="M68.6668 65.8633C68.6766 65.4725 68.6068 65.0839 68.4617 64.7209C68.3166 64.3579 68.0993 64.0282 67.8229 63.7518C67.5465 63.4754 67.2168 63.258 66.8538 63.113C66.4908 62.9679 66.1021 62.8981 65.7113 62.9079C64.8696 62.8546 64.0408 63.1349 63.4041 63.6879C62.7674 64.241 62.374 65.0225 62.309 65.8633H68.6668ZM72.7293 72.7391C71.9258 73.702 70.9188 74.4747 69.7808 75.0016C68.6428 75.5284 67.4021 75.7963 66.148 75.786C61.334 75.786 57.4746 72.5766 57.4746 67.5899C57.4746 62.6032 61.334 59.404 66.148 59.404C70.6473 59.404 73.4707 62.6133 73.4707 67.5899V69.1032H62.2988C62.4315 69.9641 62.8723 70.7475 63.5392 71.308C64.206 71.8684 65.0537 72.1676 65.9246 72.15C66.6106 72.1491 67.2852 71.9744 67.8855 71.6423C68.4857 71.3102 68.9921 70.8315 69.3574 70.2508L72.7293 72.7391ZM83.5152 63.6594C82.7291 63.6352 81.9536 63.8461 81.2881 64.2652C80.6226 64.6843 80.0973 65.2925 79.7795 66.0119C79.4617 66.7314 79.3658 67.5293 79.5042 68.3035C79.6426 69.0778 80.009 69.7931 80.5563 70.3578C81.1037 70.9226 81.8072 71.3112 82.5767 71.4738C83.3462 71.6364 84.1467 71.5656 84.8757 71.2705C85.6048 70.9753 86.2292 70.4694 86.6689 69.8173C87.1086 69.1652 87.3438 68.3967 87.3441 67.6102C87.3872 67.0883 87.3177 66.5632 87.1403 66.0705C86.9629 65.5778 86.6817 65.129 86.3157 64.7544C85.9498 64.3798 85.5077 64.0882 85.0192 63.8993C84.5308 63.7103 84.0075 63.6286 83.4848 63.6594M91.8129 75.4204H87.3441V73.3891C86.7859 74.1337 86.0644 74.7405 85.2352 75.1631C84.406 75.5856 83.4911 75.8126 82.5605 75.8266C77.9293 75.8266 74.8824 72.4852 74.8824 67.7625C74.8824 63.4258 77.584 59.4446 81.9918 59.4446C82.9186 59.3632 83.8513 59.5051 84.7119 59.8585C85.5725 60.212 86.3358 60.7666 86.9379 61.4758H86.9988V52.5383H91.8129V75.4204ZM126.547 47.7344H98.8816C98.5675 47.7304 98.2556 47.7889 97.9643 47.9067C97.673 48.0244 97.4081 48.199 97.185 48.4202C96.9619 48.6414 96.785 48.9049 96.6648 49.1952C96.5446 49.4855 96.4834 49.7968 96.4848 50.111V77.8883C96.4874 78.2 96.5516 78.508 96.6736 78.7948C96.7956 79.0815 96.9731 79.3413 97.1958 79.5593C97.4185 79.7773 97.6821 79.9492 97.9714 80.065C98.2607 80.1809 98.57 80.2384 98.8816 80.2344H126.547C126.862 80.2425 127.175 80.188 127.468 80.0741C127.762 79.9602 128.03 79.7892 128.256 79.5709C128.483 79.3527 128.664 79.0915 128.789 78.8027C128.914 78.5138 128.981 78.203 128.985 77.8883V50.111C128.985 49.7937 128.921 49.4796 128.798 49.1872C128.675 48.8948 128.494 48.6301 128.267 48.4086C128.04 48.1871 127.771 48.0133 127.475 47.8975C127.18 47.7818 126.864 47.7263 126.547 47.7344ZM106.113 75.4305H101.299V59.9219H106.113V75.4305ZM103.706 57.8196C103.153 57.8196 102.613 57.6558 102.154 57.3489C101.695 57.042 101.337 56.6058 101.125 56.0954C100.914 55.5851 100.859 55.0235 100.967 54.4817C101.074 53.9399 101.34 53.4423 101.731 53.0517C102.122 52.6611 102.619 52.3951 103.161 52.2873C103.703 52.1795 104.264 52.2349 104.775 52.4462C105.285 52.6576 105.721 53.0156 106.028 53.4749C106.335 53.9342 106.499 54.4742 106.499 55.0266C106.499 55.7674 106.205 56.4778 105.681 57.0015C105.157 57.5253 104.447 57.8196 103.706 57.8196ZM124.15 75.4305H119.336V67.8946C119.336 66.0969 119.336 63.8321 116.838 63.8321C114.339 63.8321 113.943 65.7922 113.943 67.8133V75.4813H109.129V59.9219H113.75V62.0547H113.811C114.276 61.266 114.945 60.6174 115.747 60.1776C116.55 59.7378 117.457 59.5231 118.371 59.5563C123.246 59.5563 124.15 62.7657 124.15 66.9399V75.4305Z" style="fill: rgb(0, 0, 0);"/>
</svg>